<?xml version="1.0" encoding="UTF-8" standalone="no"?>
<svg
   data-name="Layer 1"
   viewBox="0 0 60 51.144146"
   x="0px"
   y="0px"
   version="1.1"
   id="svg4"
   sodipodi:docname="noun-collection-2221169.svg"
   width="60"
   height="51.144146"
   inkscape:version="1.3 (0e150ed6c4, 2023-07-21)"
   xmlns:inkscape="http://www.inkscape.org/namespaces/inkscape"
   xmlns:sodipodi="http://sodipodi.sourceforge.net/DTD/sodipodi-0.dtd"
   xmlns="http://www.w3.org/2000/svg"
   xmlns:svg="http://www.w3.org/2000/svg"
   xmlns:rdf="http://www.w3.org/1999/02/22-rdf-syntax-ns#"
   xmlns:cc="http://creativecommons.org/ns#"
   xmlns:dc="http://purl.org/dc/elements/1.1/">
  <defs
     id="defs4" />
  <sodipodi:namedview
     id="namedview4"
     pagecolor="#ffffff"
     bordercolor="#000000"
     borderopacity="0.25"
     inkscape:showpageshadow="2"
     inkscape:pageopacity="0.0"
     inkscape:pagecheckerboard="0"
     inkscape:deskcolor="#d1d1d1"
     showgrid="false"
     inkscape:zoom="6.592"
     inkscape:cx="30.036408"
     inkscape:cy="38.076456"
     inkscape:window-width="1920"
     inkscape:window-height="1019"
     inkscape:window-x="1920"
     inkscape:window-y="30"
     inkscape:window-maximized="1"
     inkscape:current-layer="svg4" />
  <title
     id="title1">A</title>
  <path
     d="m 1.551333,0 h 23.564 a 1.5513333,1.5513333 0 0 1 1.551334,1.551346 v 19.12938 A 1.5513333,1.5513333 0 0 1 25.115333,22.23206 H 1.551267 A 1.5512667,1.5512667 0 0 1 0,20.680786 V 1.551306 A 1.5513333,1.5513333 0 0 1 1.551333,0 Z"
     id="path1"
     style="stroke-width:0.666667" />
  <path
     d="M 34.884667,0 H 58.448733 A 1.5512667,1.5512667 0 0 1 60,1.551266 v 19.12946 a 1.5513333,1.5513333 0 0 1 -1.551333,1.551334 h -23.564 A 1.5513333,1.5513333 0 0 1 33.333333,20.680726 V 1.551306 A 1.5513333,1.5513333 0 0 1 34.884667,0 Z"
     id="path2"
     style="stroke-width:0.666667" />
  <path
     d="m 1.551333,28.91206 h 56.8974 A 1.5512667,1.5512667 0 0 1 60,30.463333 v 19.12948 a 1.5513333,1.5513333 0 0 1 -1.551333,1.551333 H 1.551267 A 1.5512667,1.5512667 0 0 1 0,49.592853 V 30.463393 A 1.5513333,1.5513333 0 0 1 1.551333,28.91206 Z"
     id="path3"
     style="stroke-width:0.666667" />
  <metadata
     id="metadata4">
    <rdf:RDF>
      <cc:Work
         rdf:about="">
        <dc:title>A</dc:title>
      </cc:Work>
    </rdf:RDF>
  </metadata>
</svg>
