<?xml version="1.0" encoding="UTF-8" standalone="no"?>
<svg
   data-name="Layer 1"
   viewBox="0 0 60 60"
   x="0px"
   y="0px"
   version="1.1"
   id="svg5"
   sodipodi:docname="noun-collection-2221168.svg"
   width="60"
   height="60"
   inkscape:version="1.3 (0e150ed6c4, 2023-07-21)"
   xmlns:inkscape="http://www.inkscape.org/namespaces/inkscape"
   xmlns:sodipodi="http://sodipodi.sourceforge.net/DTD/sodipodi-0.dtd"
   xmlns="http://www.w3.org/2000/svg"
   xmlns:svg="http://www.w3.org/2000/svg"
   xmlns:rdf="http://www.w3.org/1999/02/22-rdf-syntax-ns#"
   xmlns:cc="http://creativecommons.org/ns#"
   xmlns:dc="http://purl.org/dc/elements/1.1/">
  <defs
     id="defs5" />
  <sodipodi:namedview
     id="namedview5"
     pagecolor="#ffffff"
     bordercolor="#000000"
     borderopacity="0.25"
     inkscape:showpageshadow="2"
     inkscape:pageopacity="0.0"
     inkscape:pagecheckerboard="0"
     inkscape:deskcolor="#d1d1d1"
     showgrid="false"
     inkscape:zoom="6.592"
     inkscape:cx="30.036408"
     inkscape:cy="42.475728"
     inkscape:window-width="1920"
     inkscape:window-height="1019"
     inkscape:window-x="1920"
     inkscape:window-y="30"
     inkscape:window-maximized="1"
     inkscape:current-layer="svg5" />
  <title
     id="title1">A</title>
  <path
     d="m 5.70638,0 h 16.573333 a 5.70638,5.70638 0 0 1 5.70638,5.70638 v 16.573407 a 5.70634,5.70634 0 0 1 -5.70634,5.70634 H 5.70634 A 5.70634,5.70634 0 0 1 0,22.279787 V 5.70638 A 5.70638,5.70638 0 0 1 5.70638,0 Z"
     id="path1"
     style="stroke-width:0.666667" />
  <path
     d="M 37.720213,0 H 54.29362 A 5.70638,5.70638 0 0 1 60,5.70638 v 16.573333 a 5.70638,5.70638 0 0 1 -5.70638,5.70638 H 37.720287 a 5.70638,5.70638 0 0 1 -5.70638,-5.70638 V 5.70634 A 5.70634,5.70634 0 0 1 37.720213,0 Z"
     id="path2"
     style="stroke-width:0.666667" />
  <path
     d="m 5.70634,32.013873 h 16.573407 a 5.70638,5.70638 0 0 1 5.70638,5.70638 V 54.293587 A 5.70638,5.70638 0 0 1 22.279747,60 H 5.70634 A 5.70634,5.70634 0 0 1 0,54.29366 V 37.720213 a 5.70634,5.70634 0 0 1 5.70634,-5.70634 z"
     id="path3"
     style="stroke-width:0.666667" />
  <path
     d="M 37.720253,32.013873 H 54.293587 A 5.70638,5.70638 0 0 1 60,37.720253 V 54.29366 A 5.70634,5.70634 0 0 1 54.29366,60 H 37.720213 a 5.70634,5.70634 0 0 1 -5.70634,-5.70634 V 37.720253 a 5.70638,5.70638 0 0 1 5.70638,-5.70638 z"
     id="path4"
     style="stroke-width:0.666667" />
  <metadata
     id="metadata5">
    <rdf:RDF>
      <cc:Work
         rdf:about="">
        <dc:title>A</dc:title>
      </cc:Work>
    </rdf:RDF>
  </metadata>
</svg>
