<?xml version="1.0" encoding="UTF-8" standalone="no"?>
<svg
   viewBox="0 0 60 59.9724"
   version="1.1"
   xml:space="preserve"
   x="0px"
   y="0px"
   fill-rule="evenodd"
   clip-rule="evenodd"
   stroke-linejoin="round"
   stroke-miterlimit="2"
   id="svg2"
   sodipodi:docname="noun-graph-6237006.svg"
   width="60"
   height="59.972401"
   inkscape:version="1.3 (0e150ed6c4, 2023-07-21)"
   xmlns:inkscape="http://www.inkscape.org/namespaces/inkscape"
   xmlns:sodipodi="http://sodipodi.sourceforge.net/DTD/sodipodi-0.dtd"
   xmlns="http://www.w3.org/2000/svg"
   xmlns:svg="http://www.w3.org/2000/svg"><defs
     id="defs2" /><sodipodi:namedview
     id="namedview2"
     pagecolor="#ffffff"
     bordercolor="#000000"
     borderopacity="0.25"
     inkscape:showpageshadow="2"
     inkscape:pageopacity="0.0"
     inkscape:pagecheckerboard="0"
     inkscape:deskcolor="#d1d1d1"
     showgrid="false"
     inkscape:zoom="10.3"
     inkscape:cx="30"
     inkscape:cy="14.660194"
     inkscape:window-width="1920"
     inkscape:window-height="1019"
     inkscape:window-x="1920"
     inkscape:window-y="30"
     inkscape:window-maximized="1"
     inkscape:current-layer="svg2" /><g
     transform="matrix(1.2,0,0,1.2,-384,-445.2276)"
     id="g1"><path
       d="m 320,372.023 c 0,-0.552 0.448,-1 1,-1 0.552,0 1,0.448 1,1 V 419 h 47 c 0.552,0 1,0.448 1,1 0,0.552 -0.448,1 -1,1 h -48 c -0.552,0 -1,-0.448 -1,-1 z m 12.541,29.566 c 0.316,0.574 0.497,1.234 0.497,1.936 0,2.215 -1.799,4.014 -4.015,4.014 -2.215,0 -4.014,-1.799 -4.014,-4.014 0,-2.216 1.799,-4.015 4.014,-4.015 0.79,0 1.526,0.228 2.147,0.622 l 5.83,-5.484 c -0.317,-0.574 -0.498,-1.234 -0.498,-1.936 0,-2.215 1.799,-4.014 4.015,-4.014 2.216,0 4.015,1.799 4.015,4.014 0,0.598 -0.131,1.166 -0.366,1.676 l 5.457,4.432 c 0.668,-0.495 1.494,-0.788 2.387,-0.788 0.589,0 1.149,0.127 1.653,0.355 l 6.629,-8.267 c -0.504,-0.671 -0.803,-1.505 -0.803,-2.408 0,-2.216 1.799,-4.015 4.015,-4.015 2.216,0 4.015,1.799 4.015,4.015 0,2.216 -1.799,4.015 -4.015,4.015 -0.589,0 -1.148,-0.127 -1.652,-0.356 l -6.629,8.268 c 0.503,0.671 0.802,1.505 0.802,2.408 0,2.215 -1.799,4.014 -4.015,4.014 -2.215,0 -4.014,-1.799 -4.014,-4.014 0,-0.598 0.131,-1.166 0.365,-1.676 l -5.457,-4.431 c -0.667,0.494 -1.493,0.787 -2.387,0.787 -0.789,0 -1.526,-0.228 -2.147,-0.622 z"
       id="path1" /></g></svg>
