<?xml version="1.0" encoding="UTF-8" standalone="no"?>
<svg
   data-name="Layer 1"
   viewBox="0 0 60 45"
   x="0px"
   y="0px"
   version="1.1"
   id="svg2"
   sodipodi:docname="noun-weight-976409.svg"
   width="60"
   height="45"
   inkscape:version="1.3 (0e150ed6c4, 2023-07-21)"
   xmlns:inkscape="http://www.inkscape.org/namespaces/inkscape"
   xmlns:sodipodi="http://sodipodi.sourceforge.net/DTD/sodipodi-0.dtd"
   xmlns="http://www.w3.org/2000/svg"
   xmlns:svg="http://www.w3.org/2000/svg"
   xmlns:rdf="http://www.w3.org/1999/02/22-rdf-syntax-ns#"
   xmlns:cc="http://creativecommons.org/ns#"
   xmlns:dc="http://purl.org/dc/elements/1.1/">
  <defs
     id="defs2" />
  <sodipodi:namedview
     id="namedview2"
     pagecolor="#ffffff"
     bordercolor="#000000"
     borderopacity="0.25"
     inkscape:showpageshadow="2"
     inkscape:pageopacity="0.0"
     inkscape:pagecheckerboard="0"
     inkscape:deskcolor="#d1d1d1"
     showgrid="false"
     inkscape:zoom="6.592"
     inkscape:cx="3.3373786"
     inkscape:cy="-15.169903"
     inkscape:window-width="1920"
     inkscape:window-height="1019"
     inkscape:window-x="1920"
     inkscape:window-y="30"
     inkscape:window-maximized="1"
     inkscape:current-layer="svg2" />
  <title
     id="title1">1Artboard 27</title>
  <path
     d="M 0,31.875 V 13.125 A 5.625,5.625 0 0 1 5.6250004,7.5 h 1.874999 V 5.625 a 5.625,5.625 0 0 1 11.2499996,0 v 11.25 h 22.5 V 5.625 a 5.6250001,5.6250001 0 0 1 11.25,0 V 7.5 h 1.875 a 5.625,5.625 0 0 1 5.625,5.625 v 18.75 a 5.625,5.625 0 0 1 -5.625,5.625 h -1.875 v 1.875 a 5.6250001,5.6250001 0 0 1 -11.25,0 v -11.25 h -22.5 v 11.25 a 5.625,5.625 0 0 1 -11.2499996,0 V 37.5 H 5.6250004 A 5.625,5.625 0 0 1 0,31.875 Z"
     id="path1"
     style="stroke-width:0.9375" />
  <metadata
     id="metadata2">
    <rdf:RDF>
      <cc:Work
         rdf:about="">
        <dc:title>1Artboard 27</dc:title>
      </cc:Work>
    </rdf:RDF>
  </metadata>
</svg>
