<?xml version="1.0" encoding="UTF-8" standalone="no"?>
<svg
   version="1.1"
   x="0px"
   y="0px"
   viewBox="60 60 60.000001 59.999999"
   enable-background="new 0 0 100 100"
   xml:space="preserve"
   id="svg2"
   sodipodi:docname="noun-settings-3398263.svg"
   width="60"
   height="60"
   inkscape:version="1.3.1 (91b66b0783, 2023-11-16)"
   xmlns:inkscape="http://www.inkscape.org/namespaces/inkscape"
   xmlns:sodipodi="http://sodipodi.sourceforge.net/DTD/sodipodi-0.dtd"
   xmlns="http://www.w3.org/2000/svg"
   xmlns:svg="http://www.w3.org/2000/svg"
   xmlns:rdf="http://www.w3.org/1999/02/22-rdf-syntax-ns#"
   xmlns:cc="http://creativecommons.org/ns#"
   xmlns:dc="http://purl.org/dc/elements/1.1/"><defs
     id="defs2" /><sodipodi:namedview
     id="namedview2"
     pagecolor="#ffffff"
     bordercolor="#000000"
     borderopacity="0.25"
     inkscape:showpageshadow="2"
     inkscape:pageopacity="0.0"
     inkscape:pagecheckerboard="0"
     inkscape:deskcolor="#d1d1d1"
     inkscape:zoom="26.368"
     inkscape:cx="40.731189"
     inkscape:cy="35.535498"
     inkscape:window-width="1920"
     inkscape:window-height="1019"
     inkscape:window-x="1920"
     inkscape:window-y="30"
     inkscape:window-maximized="1"
     inkscape:current-layer="svg2" /><title
     id="title1">Settings</title><path
     d="m 92.41072,119.90904 h -4.62079 c -1.424743,-0.021 -2.64853,-1.01034 -2.960192,-2.39278 l -0.746072,-3.87631 c -0.58903,-2.40115 -3.023367,-3.87271 -5.438452,-3.28708 -0.44102,0.10708 -0.863389,0.27936 -1.252667,0.51146 l -2.935525,2.22529 c -1.233414,0.8632 -2.914467,0.71125 -3.970991,-0.35892 l -3.248993,-3.20573 c -1.089616,-1.05461 -1.24304,-2.74093 -0.360999,-3.97262 l 2.238195,-3.11061 c 1.187687,-2.17085 0.379651,-4.887863 -1.803792,-6.068708 -0.312866,-0.16869 -0.644384,-0.300891 -0.988537,-0.39181 v 0 l -3.898189,-0.71784 c -1.390449,-0.309863 -2.385603,-1.526593 -2.406661,-2.94312 v -4.618063 c 0.01023,-1.425499 1.00779,-2.655389 2.406661,-2.967049 l 3.898791,-0.717834 c 2.407865,-0.611954 3.860887,-3.0496 3.245383,-5.443578 -0.100478,-0.389426 -0.2527,-0.763298 -0.453054,-1.112644 l -2.238797,-3.014905 c -0.882041,-1.231085 -0.728617,-2.917997 0.360999,-3.972017 l 3.248993,-3.206327 c 1.056524,-1.070172 2.737577,-1.222114 3.970991,-0.358917 l 3.128659,2.225287 c 2.183444,1.180837 4.916207,0.377461 6.103895,-1.79339 0.170271,-0.311062 0.302035,-0.640668 0.39409,-0.982835 l 0.722005,-3.875708 c 0.311663,-1.38243 1.535449,-2.371845 2.960193,-2.392782 h 4.644856 c 1.433768,0.01017 2.670794,1.001977 2.984257,2.392782 l 0.721998,3.876305 c 0.385072,1.359101 1.353753,2.480119 2.647328,3.062761 1.324267,0.517439 2.814587,0.402586 4.043187,-0.311061 l 2.93613,-2.201359 c 1.23401,-0.863197 2.91446,-0.711255 3.97099,0.358917 l 3.24899,3.206327 c 1.08961,1.05402 1.24304,2.740932 0.361,3.972017 l -2.23819,3.110616 c -1.1877,2.170851 -0.38025,4.887855 1.80319,6.068693 0.31286,0.169289 0.64498,0.300295 0.98853,0.391818 l 3.89879,0.717834 c 1.39045,0.309865 2.38561,1.526595 2.40667,2.943122 v 4.618062 c -0.0211,1.415929 -1.01622,2.633257 -2.40667,2.94312 l -3.89879,0.741768 c -2.41508,0.58563 -3.89518,3.00593 -3.30615,5.407098 0.1077,0.43787 0.28098,0.85781 0.51443,1.24484 l 2.23819,3.11061 c 0.77495,1.19102 0.62573,2.7553 -0.361,3.7806 l -3.24899,3.20633 c -1.05411,1.00317 -2.672,1.13358 -3.87412,0.31106 l -3.12866,-2.22529 c -2.16119,-1.22091 -4.907782,-0.46898 -6.135779,1.67974 -0.205774,0.35891 -0.359797,0.74355 -0.458472,1.14374 l -0.722602,3.87631 c -0.313463,1.39081 -1.550489,2.38262 -2.984257,2.39278 z M 79.775743,107.94513 c 3.212291,-0.0329 6.011244,2.17146 6.714591,5.28805 l 0.625731,3.7806 c 0.0716,0.27816 0.313468,0.48035 0.601666,0.50248 h 4.644855 c 0.288199,-0.0221 0.530072,-0.22432 0.601665,-0.50248 l 0.746063,-3.75667 c 0.787585,-3.69744 4.440293,-6.06092 8.159176,-5.27788 0.82188,0.17288 1.60465,0.49411 2.3104,0.94755 l 3.12806,2.22469 c 0.23164,0.16091 0.53909,0.16091 0.77013,0 l 3.27305,-3.25359 c 0.16125,-0.23031 0.16125,-0.53598 0,-0.7651 l -2.23819,-3.1124 c -2.07394,-3.16685 -1.17385,-7.406269 2.01197,-9.468849 0.71478,-0.462406 1.51018,-0.78902 2.34409,-0.963095 l 3.80252,-0.622123 c 0.27978,-0.07059 0.48314,-0.31166 0.5054,-0.598195 v -4.665919 c -0.0222,-0.286535 -0.22562,-0.52701 -0.5054,-0.598195 L 113.469,86.410098 c -3.71949,-0.783038 -6.09547,-4.414683 -5.30789,-8.112128 0.17388,-0.817135 0.49637,-1.595387 0.95183,-2.296472 l 2.2388,-3.110617 c 0.16125,-0.229707 0.16125,-0.535385 0,-0.76569 l -3.32179,-3.206327 c -0.23104,-0.160316 -0.5391,-0.160316 -0.77014,0 l -3.12805,2.225287 c -3.21169,2.022498 -7.463653,1.074359 -9.498487,-2.11821 -0.44042,-0.69271 -0.753287,-1.458401 -0.922354,-2.26058 L 93.085186,62.984766 C 93.005756,62.68148 92.725389,62.472112 92.41072,62.482282 h -4.62079 c -0.288197,0.02214 -0.530067,0.224323 -0.601665,0.502484 l -0.697931,3.756667 c -0.809842,3.69266 -4.476998,6.033398 -8.191078,5.228826 -0.782164,-0.169888 -1.528831,-0.473771 -2.205705,-0.897891 l -3.128659,-2.225287 c -0.231641,-0.160317 -0.539092,-0.160317 -0.770132,0 l -3.297126,3.325966 c -0.161245,0.229707 -0.161245,0.535385 0,0.76569 l 2.238196,3.110616 c 2.03423,3.192569 1.080591,7.420614 -2.130498,9.443112 -0.696728,0.439076 -1.466859,0.749539 -2.273693,0.917633 l -3.802524,0.622122 c -0.279774,0.07119 -0.483137,0.31166 -0.505399,0.598196 v 4.618063 c 0.02226,0.286535 0.225625,0.52701 0.505399,0.598195 l 3.802524,0.741762 c 3.718894,0.783038 6.095471,4.414684 5.308493,8.112144 -0.173881,0.81713 -0.496975,1.59539 -0.952436,2.29707 l -2.238195,3.11001 c -0.161246,0.23031 -0.161246,0.53599 0,0.76569 l 3.297127,3.25419 c 0.231038,0.16031 0.538489,0.16031 0.770131,0 l 3.128659,-2.22589 c 1.114285,-0.69331 2.417492,-1.0277 3.730325,-0.95652 z m 10.324583,-4.78556 c -7.31024,0 -13.236643,-5.892232 -13.236643,-13.160306 0,-7.268068 5.926403,-13.160292 13.236643,-13.160292 7.310232,0 13.236634,5.892224 13.236634,13.160292 -0.0127,7.262693 -5.931819,13.147746 -13.236634,13.160306 z m 0,-23.927817 c -5.981156,0 -10.829982,4.820856 -10.829982,10.767511 0,5.946662 4.848826,10.767526 10.829982,10.767526 5.98115,0 10.829974,-4.820864 10.829974,-10.767526 0,-5.946655 -4.848824,-10.767511 -10.829974,-10.767511 z"
     id="path1"
     style="stroke-width:0.599928" /><metadata
     id="metadata2"><rdf:RDF><cc:Work
         rdf:about=""><dc:title>Settings</dc:title></cc:Work></rdf:RDF></metadata></svg>
