<?xml version="1.0" encoding="UTF-8" standalone="no"?>
<svg
   version="1.1"
   x="0px"
   y="0px"
   viewBox="0 0 60 92.388336"
   enable-background="new 0 0 100 100"
   xml:space="preserve"
   id="svg3"
   sodipodi:docname="noun-weightlifting-533272.svg"
   width="60"
   height="92.388336"
   inkscape:version="1.3 (0e150ed6c4, 2023-07-21)"
   xmlns:inkscape="http://www.inkscape.org/namespaces/inkscape"
   xmlns:sodipodi="http://sodipodi.sourceforge.net/DTD/sodipodi-0.dtd"
   xmlns="http://www.w3.org/2000/svg"
   xmlns:svg="http://www.w3.org/2000/svg"><defs
     id="defs3" /><sodipodi:namedview
     id="namedview3"
     pagecolor="#ffffff"
     bordercolor="#000000"
     borderopacity="0.25"
     inkscape:showpageshadow="2"
     inkscape:pageopacity="0.0"
     inkscape:pagecheckerboard="0"
     inkscape:deskcolor="#d1d1d1"
     showgrid="false"
     inkscape:zoom="6.592"
     inkscape:cx="32.615291"
     inkscape:cy="59.466019"
     inkscape:window-width="1920"
     inkscape:window-height="1019"
     inkscape:window-x="1920"
     inkscape:window-y="30"
     inkscape:window-maximized="1"
     inkscape:current-layer="svg3" /><path
     fill="#000000"
     d="m 14.249105,6.5239699 c -2.315,0 -4.199,1.884 -4.199,4.1990001 0,2.315 1.884,4.199 4.199,4.199 2.315,0 4.199,-1.884 4.199,-4.199 0,-2.3150001 -1.884,-4.1990001 -4.199,-4.1990001 z m 0,5.3980001 c -0.661,0 -1.199,-0.538 -1.199,-1.199 0,-0.661 0.538,-1.1990001 1.199,-1.1990001 0.661,0 1.199,0.5380001 1.199,1.1990001 0,0.661 -0.538,1.199 -1.199,1.199 z"
     id="path1" /><path
     fill="#000000"
     d="M 50.325955,26.412186 C 55.660087,26.412186 60,22.072273 60,16.738141 60,11.404008 55.660087,7.0640955 50.325955,7.0640955 c -4.417359,0 -8.146412,2.9807255 -9.29843,7.0350535 L 26.586644,12.273346 c 0.0048,-0.140372 0.02033,-0.276872 0.02033,-0.418212 C 26.606974,5.3176753 21.289298,0 14.75184,0 8.2143813,0 2.8967061,5.3176753 2.8967061,11.855134 c 0,6.537459 5.3176752,11.855134 11.8551339,11.855134 0.119074,0 0.235244,-0.01452 0.354318,-0.01839 l 7.348711,15.832015 c 0.206202,0.44435 0.504371,0.826742 0.86353,1.136529 L 23.4791,42.435884 21.61651,62.147005 16.80127,77.435927 1.5307421,86.552356 c -1.35337881,0.806413 -1.91583457,2.51895 -1.25173021,3.988499 0.7134766,1.580878 2.57413051,2.281769 4.15404051,1.568293 L 22.333859,84.01985 c 0.776402,-0.351414 1.436634,-0.981635 1.811282,-1.820962 l 0.19652,-0.442414 5.737823,-12.887109 11.661518,4.201476 -5.623589,13.794203 c -0.593435,1.452123 -0.02033,3.152075 1.385325,3.931381 1.516017,0.841264 3.427979,0.294297 4.268275,-1.223655 l 9.521088,-17.169906 c 0.03775,-0.06873 0.08035,-0.150052 0.114233,-0.22169 0.96421,-2.023292 0.105521,-4.445434 -1.916802,-5.408675 l -0.422084,-0.201361 -14.187244,-6.760118 3.850062,-16.198919 0.143277,-0.605051 -0.06002,-1.183965 -0.02323,-0.471456 c 0.291392,-0.08519 0.581817,-0.181999 0.867401,-0.308818 3.410554,-1.513112 4.945932,-5.505483 3.431851,-8.915068 -0.289456,-0.652488 -0.67088,-1.234305 -1.120071,-1.74158 l 2.169472,-6.219928 c 1.677687,1.399847 3.834574,2.245951 6.187014,2.245951 z m 0,-16.4438441 c 3.732924,0 6.769798,3.0368741 6.769798,6.7697991 0,3.732924 -3.036874,6.769798 -6.769798,6.769798 -2.052335,0 -3.890723,-0.920646 -5.132772,-2.367929 l 1.197518,-3.435723 3.752286,0.47436 0.364967,-2.881981 -6.552948,-0.82771 c 0.936135,-2.618662 3.434755,-4.5006141 6.370949,-4.5006141 z M 5.8009525,11.855134 c 0,-4.9362508 4.014637,-8.9508875 8.9508875,-8.9508875 4.936251,0 8.950887,4.0146367 8.950887,8.9508875 0,4.936251 -4.014636,8.950888 -8.950887,8.950888 -4.9362505,0 -8.9508875,-4.014637 -8.9508875,-8.950888 z M 21.575851,21.53402 c 2.17044,-1.535379 3.801658,-3.776489 4.557731,-6.391279 l 13.383735,1.692208 -3.984626,11.422401 c -0.458871,0.09584 -0.913869,0.239116 -1.359187,0.436605 -2.565418,1.138465 -4.069818,3.681617 -4.012701,6.323513 l -2.401812,-0.164574 z"
     id="path2"
     style="stroke-width:0.968082" /></svg>
