<?xml version="1.0" encoding="UTF-8" standalone="no"?>
<svg
   data-name="Layer 1"
   viewBox="0 0 60 60"
   x="0px"
   y="0px"
   version="1.1"
   id="svg3"
   sodipodi:docname="noun-about-2479027.svg"
   width="60"
   height="60"
   inkscape:version="1.3 (0e150ed6c4, 2023-07-21)"
   xmlns:inkscape="http://www.inkscape.org/namespaces/inkscape"
   xmlns:sodipodi="http://sodipodi.sourceforge.net/DTD/sodipodi-0.dtd"
   xmlns="http://www.w3.org/2000/svg"
   xmlns:svg="http://www.w3.org/2000/svg"
   xmlns:rdf="http://www.w3.org/1999/02/22-rdf-syntax-ns#"
   xmlns:cc="http://creativecommons.org/ns#"
   xmlns:dc="http://purl.org/dc/elements/1.1/">
  <defs
     id="defs3" />
  <sodipodi:namedview
     id="namedview3"
     pagecolor="#ffffff"
     bordercolor="#000000"
     borderopacity="0.25"
     inkscape:showpageshadow="2"
     inkscape:pageopacity="0.0"
     inkscape:pagecheckerboard="0"
     inkscape:deskcolor="#d1d1d1"
     showgrid="false"
     inkscape:zoom="6.592"
     inkscape:cx="30.036408"
     inkscape:cy="42.475728"
     inkscape:window-width="1920"
     inkscape:window-height="1019"
     inkscape:window-x="1920"
     inkscape:window-y="30"
     inkscape:window-maximized="1"
     inkscape:current-layer="g3" />
  <title
     id="title1">84</title>
  <g
     id="g3"
     inkscape:groupmode="layer"
     transform="translate(-20,-20)">
    <path
       d="M 50,20 A 30,30 0 1 0 80,50 30.033847,30.033847 0 0 0 50,20 Z m 0,56 A 26,26 0 1 1 76,50 26.029267,26.029267 0 0 1 50,76 Z"
       id="path1"
       style="stroke-width:0.666667" />
    <path
       d="m 55.333293,61.33354 h -1.99988 V 42.666873 A 1.3333333,1.3333333 0 0 0 52.00008,41.33354 h -7.333333 a 3.3333335,3.3333335 0 1 0 0,6.666667 h 2 V 61.33354 h -2.00012 a 3.3333335,3.3333335 0 1 0 0,6.666667 h 10.666666 a 3.3333335,3.3333335 0 0 0 0,-6.666667 z"
       id="path2"
       style="stroke-width:0.666667" />
    <circle
       cx="50.00008"
       cy="33.333542"
       r="3.3333333"
       id="circle2"
       style="stroke-width:0.666667" />
  </g>
  <metadata
     id="metadata3">
    <rdf:RDF>
      <cc:Work
         rdf:about="">
        <dc:title>84</dc:title>
      </cc:Work>
    </rdf:RDF>
  </metadata>
</svg>
